<?xml version="1.0" encoding="UTF-8"?>
<svg version="1.1" xmlns="http://www.w3.org/2000/svg" width="512" height="512">
<path d="M0 0 C1.45108658 0.00273422 1.45108658 0.00273422 2.93148804 0.00552368 C17.26440977 0.05095174 31.21023917 0.55983928 45.3125 3.3125 C46.65803955 3.55395752 46.65803955 3.55395752 48.03076172 3.80029297 C107.84088904 14.62287989 165.35495829 48.68064457 202.3125 97.3125 C202.72918945 97.85277832 203.14587891 98.39305664 203.57519531 98.94970703 C211.2584873 108.9447116 218.00092968 119.40459036 224.3125 130.3125 C224.70679199 130.98974121 225.10108398 131.66698242 225.50732422 132.36474609 C238.68961173 155.2833756 247.29510918 180.85822563 252.625 206.6875 C252.77243652 207.39817627 252.91987305 208.10885254 253.07177734 208.84106445 C256.05713787 224.48358366 256.6873098 240.11919606 256.625 256 C256.62226578 257.45108658 256.62226578 257.45108658 256.61947632 258.93148804 C256.57404826 273.26440977 256.06516072 287.21023917 253.3125 301.3125 C253.15152832 302.20952637 252.99055664 303.10655273 252.82470703 304.03076172 C242.00212011 363.84088904 207.94435543 421.35495829 159.3125 458.3125 C158.77222168 458.72918945 158.23194336 459.14587891 157.67529297 459.57519531 C147.6802884 467.2584873 137.22040964 474.00092968 126.3125 480.3125 C125.63525879 480.70679199 124.95801758 481.10108398 124.26025391 481.50732422 C101.3416244 494.68961173 75.76677437 503.29510918 49.9375 508.625 C49.22682373 508.77243652 48.51614746 508.91987305 47.78393555 509.07177734 C32.14141634 512.05713787 16.50580394 512.6873098 0.625 512.625 C-0.34239105 512.62317719 -1.3097821 512.62135437 -2.30648804 512.61947632 C-16.63940977 512.57404826 -30.58523917 512.06516072 -44.6875 509.3125 C-45.58452637 509.15152832 -46.48155273 508.99055664 -47.40576172 508.82470703 C-107.21588904 498.00212011 -164.72995829 463.94435543 -201.6875 415.3125 C-202.10418945 414.77222168 -202.52087891 414.23194336 -202.95019531 413.67529297 C-210.6334873 403.6802884 -217.37592968 393.22040964 -223.6875 382.3125 C-224.08179199 381.63525879 -224.47608398 380.95801758 -224.88232422 380.26025391 C-238.06461173 357.3416244 -246.67010918 331.76677437 -252 305.9375 C-252.14743652 305.22682373 -252.29487305 304.51614746 -252.44677734 303.78393555 C-255.43213787 288.14141634 -256.0623098 272.50580394 -256 256.625 C-255.99817719 255.65760895 -255.99635437 254.6902179 -255.99447632 253.69351196 C-255.94904826 239.36059023 -255.44016072 225.41476083 -252.6875 211.3125 C-252.44604248 209.96696045 -252.44604248 209.96696045 -252.19970703 208.59423828 C-241.37712011 148.78411096 -207.31935543 91.27004171 -158.6875 54.3125 C-158.14722168 53.89581055 -157.60694336 53.47912109 -157.05029297 53.04980469 C-147.0552884 45.3665127 -136.59540964 38.62407032 -125.6875 32.3125 C-125.01025879 31.91820801 -124.33301758 31.52391602 -123.63525391 31.11767578 C-100.7166244 17.93538827 -75.14177437 9.32989082 -49.3125 4 C-48.60182373 3.85256348 -47.89114746 3.70512695 -47.15893555 3.55322266 C-31.51641634 0.56786213 -15.88080394 -0.0623098 0 0 Z " fill="#2195F1" transform="translate(255.6875,-0.3125)"/>
<path d="M0 0 C9.1452845 5.09552286 15.60091702 11.93961015 18.625 22.0625 C19.20133374 27.41562609 19.15940931 32.74417721 19.12329102 38.11962891 C19.12711926 39.73519897 19.13274259 41.35076562 19.14001465 42.96632385 C19.15192076 46.43012898 19.15151068 49.89363073 19.14142036 53.35744095 C19.1258016 58.8377998 19.13957682 64.31784967 19.15745544 69.79818726 C19.18821256 80.43960257 19.18977856 91.08092241 19.18780518 101.72237396 C19.18641034 115.27478363 19.19678344 128.8271202 19.2363829 142.37947595 C19.25129595 147.82437506 19.25106231 153.26899854 19.23890507 158.71390176 C19.23418829 162.10235809 19.24172258 165.49070926 19.25244904 168.87914848 C19.25485117 170.44684743 19.25213398 172.01456411 19.24384117 173.58224297 C19.23317374 175.72751922 19.24100548 177.87199137 19.25318909 180.01724243 C19.25260278 181.21586725 19.25201647 182.41449207 19.25141239 183.64943886 C19.70317079 187.77666096 20.70318519 190.38498448 22.625 194.0625 C26.73968725 196.80562483 29.80915169 196.98112019 34.625 196.0625 C36.62456955 194.79182188 36.62456955 194.79182188 38.41601562 193.03759766 C39.10630859 192.40033752 39.79660156 191.76307739 40.5078125 191.10650635 C43.98291698 187.75151978 47.40109837 184.34903736 50.78125 180.8984375 C52.31351053 179.34867002 53.84607168 177.79919971 55.37890625 176.25 C57.75841083 173.83952893 60.13548824 171.42680755 62.50732422 169.00878906 C64.82094718 166.65263099 67.14408996 164.3062 69.46875 161.9609375 C70.51754333 160.8842128 70.51754333 160.8842128 71.58752441 159.78573608 C78.4288999 152.90931382 85.80399141 147.23761306 95.8125 146.6875 C103.51984653 146.86976833 111.8020893 150.05208847 117.625 155.0625 C124.45268524 163.91916718 125.21062249 171.10791464 124.625 182.0625 C122.84270484 194.16643853 109.05098135 203.78608803 100.75878906 212.07397461 C99.5929785 213.24278474 98.42737056 214.41179701 97.26194763 215.58099365 C94.12622177 218.72547393 90.98733543 221.86678007 87.84755039 225.00720668 C85.88318675 226.97228471 83.91953832 228.93807456 81.95613861 230.90411568 C75.09941529 237.77005782 68.24014721 244.63344555 61.37841797 251.49438477 C54.99069456 257.88150547 48.60859265 264.27420572 42.22904992 270.66949648 C36.73771099 276.17390573 31.2425289 281.67445808 25.74433112 287.1720162 C22.46618206 290.44991051 19.18959916 293.72933345 15.91687775 297.01264763 C12.84488665 300.09431329 9.76814002 303.17114991 6.68766975 306.24433899 C5.55922192 307.37174081 4.43247682 308.50084994 3.30757713 309.63179207 C1.77077645 311.17631186 0.2279216 312.71452345 -1.31658936 314.25132751 C-2.17783794 315.11312087 -3.03908653 315.97491423 -3.92643356 316.86282253 C-7.20495891 319.80809623 -9.91572926 321.8451618 -14.3125 322.5 C-20.42012939 321.62748152 -24.58979953 317.0988762 -28.81509399 312.88310242 C-29.32784232 312.37417963 -29.84059066 311.86525685 -30.36887681 311.34091216 C-32.07310707 309.6469398 -33.77016961 307.94597097 -35.46728516 306.24487305 C-36.69278625 305.02372238 -37.91870358 303.8029893 -39.14500427 302.5826416 C-42.46571142 299.27529913 -45.7800111 295.96160631 -49.09277391 292.64630866 C-51.86187139 289.87613989 -54.63394324 287.10895697 -57.40596902 284.34171897 C-63.94650313 277.81227101 -70.48170542 271.27751999 -77.01367188 264.73950195 C-83.74645178 258.00068035 -90.48836036 251.27109181 -97.23479807 244.54594582 C-103.03313755 238.76523225 -108.82564244 232.9787173 -114.61354864 227.18755752 C-118.06768251 223.73161245 -121.52399394 220.27791943 -124.98598099 216.82983971 C-128.24142799 213.58698264 -131.48951525 210.33692844 -134.73214912 207.08126068 C-135.92114822 205.88989893 -137.11269456 204.70107293 -138.30700111 203.51503181 C-139.94135159 201.89117648 -141.5661076 200.25826956 -143.18887329 198.62284851 C-144.55434264 197.25763077 -144.55434264 197.25763077 -145.94739723 195.86483288 C-152.75390698 188.00765529 -153.84313597 180.95353918 -153.66015625 170.7734375 C-153.2936537 166.00388372 -152.12589223 162.90990172 -149.375 159.0625 C-148.83875 158.19625 -148.3025 157.33 -147.75 156.4375 C-141.86571453 150.55321453 -134.73830708 146.95703228 -126.4375 146.625 C-125.39722656 146.56441406 -124.35695312 146.50382813 -123.28515625 146.44140625 C-112.45861058 148.16110731 -104.69907355 154.88359748 -97.33984375 162.546875 C-96.4539003 163.44367981 -95.56795685 164.34048462 -94.65516663 165.26446533 C-92.33227783 167.62044312 -90.02278713 169.98850045 -87.71984863 172.36395264 C-84.45352621 175.72589339 -81.16128361 179.06252466 -77.87342834 182.40338135 C-76.13049555 184.17739489 -74.39191486 185.95569714 -72.65818787 187.7387085 C-71.87629593 188.54004211 -71.09440399 189.34137573 -70.28881836 190.16699219 C-69.60331406 190.87281433 -68.91780975 191.57863647 -68.21153259 192.30584717 C-64.35193801 195.99756915 -61.73284207 196.55786148 -56.6015625 196.44921875 C-52.98691591 195.82141171 -51.47134148 193.94496953 -49.375 191.0625 C-48.13682677 187.54353587 -48.25301144 184.10131981 -48.25715637 180.39819336 C-48.25645179 179.72945631 -48.25574721 179.06071926 -48.25502127 178.37171745 C-48.25371339 176.13190033 -48.2593852 173.89215368 -48.26489258 171.65234375 C-48.26513476 170.04562886 -48.26485737 168.43891382 -48.26409912 166.8321991 C-48.26299291 163.37113978 -48.26442581 159.91009372 -48.26746559 156.44903564 C-48.27110082 150.9677861 -48.26195244 145.48660549 -48.24967957 140.00537109 C-48.24765764 139.07952209 -48.24563571 138.1536731 -48.24355251 137.19976807 C-48.23938373 135.30635318 -48.23518098 133.41293836 -48.23094499 131.51952362 C-48.20282874 118.7608594 -48.18263859 106.00234421 -48.19995117 93.24365234 C-48.21153631 84.6354193 -48.20183558 76.02749588 -48.16789359 67.4193182 C-48.1507911 62.86813558 -48.14436992 58.31751143 -48.164011 53.7663269 C-48.1823485 49.47815758 -48.17246 45.19094659 -48.14175415 40.90285683 C-48.13543043 39.33727043 -48.13913914 37.77160288 -48.15415001 36.20607567 C-48.25863711 24.42524301 -46.09197336 15.15617244 -38.125 6.125 C-27.49174268 -3.58259429 -13.04048609 -6.09118714 0 0 Z " fill="#F9F9F9" transform="translate(270.375,91.9375)"/>
<path d="M0 0 C1.45108658 0.00273422 1.45108658 0.00273422 2.93148804 0.00552368 C17.26440977 0.05095174 31.21023917 0.55983928 45.3125 3.3125 C46.65803955 3.55395752 46.65803955 3.55395752 48.03076172 3.80029297 C107.84088904 14.62287989 165.35495829 48.68064457 202.3125 97.3125 C202.72918945 97.85277832 203.14587891 98.39305664 203.57519531 98.94970703 C211.2584873 108.9447116 218.00092968 119.40459036 224.3125 130.3125 C224.70679199 130.98974121 225.10108398 131.66698242 225.50732422 132.36474609 C238.68961173 155.2833756 247.29510918 180.85822563 252.625 206.6875 C252.77243652 207.39817627 252.91987305 208.10885254 253.07177734 208.84106445 C256.05713787 224.48358366 256.6873098 240.11919606 256.625 256 C256.62226578 257.45108658 256.62226578 257.45108658 256.61947632 258.93148804 C256.57404826 273.26440977 256.06516072 287.21023917 253.3125 301.3125 C253.15152832 302.20952637 252.99055664 303.10655273 252.82470703 304.03076172 C242.00212011 363.84088904 207.94435543 421.35495829 159.3125 458.3125 C158.77222168 458.72918945 158.23194336 459.14587891 157.67529297 459.57519531 C147.6802884 467.2584873 137.22040964 474.00092968 126.3125 480.3125 C125.63525879 480.70679199 124.95801758 481.10108398 124.26025391 481.50732422 C101.3416244 494.68961173 75.76677437 503.29510918 49.9375 508.625 C49.22682373 508.77243652 48.51614746 508.91987305 47.78393555 509.07177734 C32.14141634 512.05713787 16.50580394 512.6873098 0.625 512.625 C-0.34239105 512.62317719 -1.3097821 512.62135437 -2.30648804 512.61947632 C-16.63940977 512.57404826 -30.58523917 512.06516072 -44.6875 509.3125 C-45.58452637 509.15152832 -46.48155273 508.99055664 -47.40576172 508.82470703 C-107.21588904 498.00212011 -164.72995829 463.94435543 -201.6875 415.3125 C-202.10418945 414.77222168 -202.52087891 414.23194336 -202.95019531 413.67529297 C-210.6334873 403.6802884 -217.37592968 393.22040964 -223.6875 382.3125 C-224.08179199 381.63525879 -224.47608398 380.95801758 -224.88232422 380.26025391 C-238.06461173 357.3416244 -246.67010918 331.76677437 -252 305.9375 C-252.14743652 305.22682373 -252.29487305 304.51614746 -252.44677734 303.78393555 C-255.43213787 288.14141634 -256.0623098 272.50580394 -256 256.625 C-255.99817719 255.65760895 -255.99635437 254.6902179 -255.99447632 253.69351196 C-255.94904826 239.36059023 -255.44016072 225.41476083 -252.6875 211.3125 C-252.44604248 209.96696045 -252.44604248 209.96696045 -252.19970703 208.59423828 C-241.37712011 148.78411096 -207.31935543 91.27004171 -158.6875 54.3125 C-158.14722168 53.89581055 -157.60694336 53.47912109 -157.05029297 53.04980469 C-147.0552884 45.3665127 -136.59540964 38.62407032 -125.6875 32.3125 C-125.01025879 31.91820801 -124.33301758 31.52391602 -123.63525391 31.11767578 C-100.7166244 17.93538827 -75.14177437 9.32989082 -49.3125 4 C-48.60182373 3.85256348 -47.89114746 3.70512695 -47.15893555 3.55322266 C-31.51641634 0.56786213 -15.88080394 -0.0623098 0 0 Z M-92.6875 41.3125 C-93.87883545 41.81837646 -93.87883545 41.81837646 -95.09423828 42.33447266 C-121.13788111 53.59991208 -143.85403941 70.08437828 -164.12744141 89.79931641 C-165.48188587 91.11306395 -166.85461845 92.4079061 -168.23046875 93.69921875 C-174.79148624 99.98153816 -180.24457634 107.06768627 -185.6875 114.3125 C-186.10644531 114.86534668 -186.52539062 115.41819336 -186.95703125 115.98779297 C-203.16720217 137.50486508 -215.79082876 161.52892435 -223.6875 187.3125 C-223.93983398 188.12638184 -224.19216797 188.94026367 -224.45214844 189.77880859 C-233.67495364 220.22318598 -236.84584151 253.49596802 -232.03369141 285.03515625 C-231.79092327 286.63215282 -231.56266617 288.23139096 -231.34521484 289.83203125 C-224.42842566 340.42552001 -200.49286617 384.66385898 -165.6875 421.3125 C-164.90246094 422.14007813 -164.11742187 422.96765625 -163.30859375 423.8203125 C-157.80495077 429.4716382 -151.86902297 434.42226552 -145.6875 439.3125 C-144.79289062 440.05886719 -143.89828125 440.80523437 -142.9765625 441.57421875 C-121.33373697 459.12637618 -95.28847203 472.16548681 -68.6875 480.3125 C-67.46667725 480.69100098 -67.46667725 480.69100098 -66.22119141 481.07714844 C-35.77681402 490.29995364 -2.50403198 493.47084151 29.03515625 488.65869141 C30.63215282 488.41592327 32.23139096 488.18766617 33.83203125 487.97021484 C84.42552001 481.05342566 128.66385898 457.11786617 165.3125 422.3125 C166.14007813 421.52746094 166.96765625 420.74242187 167.8203125 419.93359375 C173.47095343 414.43061765 178.42752349 408.49737704 183.3125 402.3125 C184.09367187 401.35988281 184.87484375 400.40726562 185.6796875 399.42578125 C222.85988296 353.03962685 239.77425227 289.58956973 233.49243164 230.83300781 C227.90590826 185.8587106 210.5921781 143.07546327 181.3125 108.3125 C180.87325195 107.78446777 180.43400391 107.25643555 179.98144531 106.71240234 C170.02849648 94.76145125 159.59562219 83.93120687 147.3125 74.3125 C145.81783203 73.10980469 145.81783203 73.10980469 144.29296875 71.8828125 C123.50222029 55.30666801 99.46151955 42.7936004 74.3125 34.3125 C73.48153809 34.03180664 72.65057617 33.75111328 71.79443359 33.46191406 C17.86662099 15.58773374 -40.55974916 19.15015347 -92.6875 41.3125 Z " fill="#000305" transform="translate(255.6875,-0.3125)"/>
<path d="M0 0 C11.03839719 9.10574853 17.65994868 22.17670913 19.6328125 36.2265625 C19.91794516 40.70630565 19.94369443 45.17471832 19.95166016 49.66259766 C19.96672859 51.62525574 19.96672859 51.62525574 19.98210144 53.62756348 C20.00919544 57.18469694 20.02448902 60.74179126 20.03752947 64.29900026 C20.05325109 68.02794112 20.08001208 71.75680311 20.1055603 75.48568726 C20.15218926 82.53310183 20.18900978 89.58053151 20.22223318 96.62802064 C20.2605674 104.65716931 20.30994763 112.68623845 20.36021733 120.71531987 C20.46330069 137.21901014 20.55263716 153.7227447 20.6328125 170.2265625 C21.24688965 169.59153809 21.8609668 168.95651367 22.49365234 168.30224609 C24.81504601 165.91197352 27.1457132 163.53152284 29.48291016 161.15673828 C30.48537257 160.13437428 31.48419221 159.10842333 32.47900391 158.07861328 C44.34105463 145.81040977 57.21807805 137.44514221 74.6953125 136.7890625 C88.53679744 136.99585759 101.62680003 142.45563402 111.8203125 151.8515625 C121.48050057 162.17662181 126.04964716 174.35147888 125.62426758 188.45141602 C125.2546373 195.07763924 124.34786506 201.14229614 121.6328125 207.2265625 C121.28736421 208.00161227 120.94191591 208.77666204 120.58599949 209.57519817 C116.21715848 218.3973219 109.9365039 224.64481309 103.04077148 231.49731445 C101.75948531 232.78866884 100.47924558 234.08106223 99.19996643 235.37440491 C95.74439754 238.8611311 92.27322404 242.33190428 88.79791903 245.79894662 C85.88845119 248.70423519 82.98661671 251.6170901 80.08464581 254.52986401 C73.23378146 261.4058115 66.36994849 268.26861809 59.49780273 275.12329102 C52.42909614 282.17447873 45.38262844 289.24734051 38.3467688 296.3312915 C32.28531275 302.43262122 26.21026797 308.52018457 20.124291 314.59705514 C16.49830331 318.21787978 12.87752565 321.84353549 9.26977348 325.48253822 C5.87490557 328.90561019 2.46325277 332.31104708 -0.96155739 335.70415306 C-2.20869986 336.94528332 -3.45002921 338.19228964 -4.68471146 339.44581604 C-12.77102882 347.64620247 -21.3530683 355.5421207 -33.3828125 356.953125 C-46.23076958 356.54968673 -54.85469337 352.0589485 -63.93894958 342.92895508 C-64.72939835 342.14636133 -64.72939835 342.14636133 -65.53581578 341.34795761 C-67.28831204 339.61038092 -69.0336666 337.86581018 -70.77905273 336.12109375 C-72.03911089 334.86866264 -73.29956858 333.61663339 -74.56039429 332.36497498 C-77.97653939 328.97073181 -81.38612936 325.56997841 -84.79388309 322.16731262 C-86.92670271 320.03814261 -89.06081336 317.91027527 -91.19536018 315.78283691 C-98.65231865 308.35036106 -106.10354871 300.91219157 -113.55004883 293.46923828 C-120.47392971 286.54898844 -127.41081789 279.64196815 -134.35380214 272.74088955 C-140.32723657 266.80223902 -146.29092307 260.85391391 -152.24733883 254.89819431 C-155.79906615 251.34725724 -159.35459629 247.80034942 -162.92019463 244.26333618 C-166.27776466 240.93208441 -169.62296499 237.58887483 -172.95940781 234.23646736 C-174.17926166 233.01480977 -175.40332035 231.79733257 -176.63207054 230.58462334 C-189.7525206 217.62494282 -197.54029408 205.14982576 -197.8046875 186.2265625 C-197.75391761 178.56101353 -197.06689669 172.07868663 -193.3671875 165.2265625 C-192.86960937 164.29585937 -192.37203125 163.36515625 -191.859375 162.40625 C-185.2343941 151.09756167 -175.57917428 143.22785189 -163.08203125 139.15625 C-148.19925741 135.43136185 -133.77254483 137.41505036 -120.3671875 144.7890625 C-110.95890127 150.76377803 -103.12387944 159.31121095 -95.3671875 167.2265625 C-94.03454907 168.56059038 -92.70129505 169.89400383 -91.3671875 171.2265625 C-91.37087467 170.52125523 -91.37456184 169.81594795 -91.37836075 169.08926773 C-91.46690179 151.8856384 -91.5329892 134.68206734 -91.57443619 117.47826004 C-91.59501512 109.1584375 -91.62304578 100.83876754 -91.66894531 92.51904297 C-91.70895677 85.26309595 -91.7346542 78.0072595 -91.74354148 70.75120521 C-91.74873217 66.91318294 -91.76083318 63.07547686 -91.79010773 59.23755646 C-91.81750386 55.61613976 -91.82558444 51.99516582 -91.81961823 48.37365532 C-91.82122251 46.42928761 -91.84261755 44.48496677 -91.86486816 42.54072571 C-91.7961263 27.71306758 -86.53963615 14.38369939 -76.3671875 3.5390625 C-54.16463539 -17.54732871 -24.24269862 -18.16202174 0 0 Z M-52.3671875 13.2265625 C-53.9140625 14.0928125 -53.9140625 14.0928125 -55.4921875 14.9765625 C-62.09778982 20.14616432 -66.95471398 26.11931508 -69.3671875 34.2265625 C-69.94307627 39.57977729 -69.90159707 44.90820038 -69.86547852 50.28369141 C-69.86930676 51.89926147 -69.87493009 53.51482812 -69.88220215 55.13038635 C-69.89410826 58.59419148 -69.89369818 62.05769323 -69.88360786 65.52150345 C-69.8679891 71.0018623 -69.88176432 76.48191217 -69.89964294 81.96224976 C-69.93040006 92.60366507 -69.93196606 103.24498491 -69.92999268 113.88643646 C-69.92859784 127.43884613 -69.93897094 140.9911827 -69.9785704 154.54353845 C-69.99348345 159.98843756 -69.99324981 165.43306104 -69.98109257 170.87796426 C-69.97637579 174.26642059 -69.98391008 177.65477176 -69.99463654 181.04321098 C-69.99703867 182.61090993 -69.99432148 184.17862661 -69.98602867 185.74630547 C-69.97536124 187.89158172 -69.98319298 190.03605387 -69.99537659 192.18130493 C-69.99479028 193.37992975 -69.99420397 194.57855457 -69.99359989 195.81350136 C-70.44535829 199.94072346 -71.44537269 202.54904698 -73.3671875 206.2265625 C-76.82187245 208.5296858 -78.68827621 209.0020144 -82.76928711 208.79589844 C-90.69939685 207.05799637 -98.06528486 196.52847797 -103.61328125 190.8671875 C-104.35534317 190.11049271 -105.09740509 189.35379791 -105.86195374 188.57417297 C-112.11689423 182.18952509 -112.11689423 182.18952509 -115.13305664 179.06298828 C-117.4040653 176.7126776 -119.6942476 174.38250231 -121.98828125 172.0546875 C-122.66571884 171.34314514 -123.34315643 170.63160278 -124.04112244 169.89849854 C-129.94628666 163.96077652 -136.64218117 160.10635557 -144.93359375 158.5625 C-152.56348849 158.66197712 -157.94722659 160.07105309 -164.3671875 164.2265625 C-165.2953125 164.8246875 -166.2234375 165.4228125 -167.1796875 166.0390625 C-173.16082736 172.02020236 -175.51612911 178.01779491 -175.6171875 186.4140625 C-175.53271325 203.7436457 -162.94363478 212.80131593 -151.39331055 224.34570312 C-150.21602531 225.52598779 -149.03894275 226.70647466 -147.86204529 227.887146 C-144.69539609 231.06255011 -141.52558584 234.23477966 -138.35487723 237.40612984 C-136.37176024 239.38996109 -134.38935838 241.37450411 -132.40720558 243.35929871 C-125.4867963 250.28892634 -118.56384268 257.21600006 -111.63842773 264.140625 C-105.18820028 270.59024947 -98.74359701 277.0454566 -92.30154771 283.50324869 C-86.758416 289.05944237 -81.2114496 294.61178774 -75.66146308 300.16113424 C-72.3514878 303.47085456 -69.04308439 306.78210962 -65.73853111 310.09724426 C-62.63780915 313.20762693 -59.53234998 316.31319953 -56.42315102 319.41510773 C-55.28299441 320.55421665 -54.14454718 321.69503945 -53.00793457 322.83768463 C-51.45763526 324.39567934 -49.90131304 325.9473978 -48.3433075 327.49768066 C-47.47376277 328.36777016 -46.60421804 329.23785965 -45.70832348 330.13431549 C-42.73098182 332.79513239 -40.52587958 334.01589121 -36.6171875 334.7265625 C-27.27019233 333.28856324 -19.67591348 322.82542274 -13.23144531 316.36547852 C-12.02535177 315.16373863 -10.81884309 313.96241527 -9.61195374 312.76147461 C-6.35336539 309.51621285 -3.10114476 306.2646417 0.14951611 303.01144147 C2.86900635 300.29087782 5.59147557 297.57330476 8.3138926 294.85567039 C14.73651155 288.44412335 21.15381634 282.02729143 27.56787109 275.60717773 C34.17685832 268.99214351 40.79498696 262.38635691 47.41762614 255.78499275 C53.11409575 250.10614852 58.80473115 244.42150386 64.49076772 238.73221344 C67.88227414 235.33889651 71.27595352 231.94782843 74.67531586 228.56237984 C77.87005247 225.38023314 81.05742784 222.19089091 84.23935127 218.99593353 C85.40577647 217.82714608 86.57474792 216.66089317 87.74648094 215.49742699 C89.35007414 213.90433178 90.94406392 212.30218618 92.53607178 210.69752502 C93.42903835 209.80472619 94.32200493 208.91192736 95.2420311 207.99207401 C101.95998693 200.2211485 103.18944282 193.08598879 102.98046875 183.00390625 C102.37144259 176.3867344 99.46533737 172.53030805 95.4453125 167.4765625 C87.7927042 161.35447586 79.40285253 158.21109377 69.6328125 159.2265625 C54.09359814 162.53277832 41.22937557 180.53142113 30.5078125 191.3515625 C27.54973848 194.33619469 24.5883698 197.31750194 21.625 200.296875 C20.61419876 201.32012375 20.61419876 201.32012375 19.58297729 202.36404419 C18.96117584 202.98914886 18.33937439 203.61425354 17.69873047 204.25830078 C16.88032181 205.08456467 16.88032181 205.08456467 16.04537964 205.92752075 C12.97170818 208.75416696 9.89591541 208.61678572 5.89453125 208.578125 C3.6328125 208.2265625 3.6328125 208.2265625 0.6328125 205.9765625 C-2.58633107 201.55024009 -2.49108588 197.97163982 -2.48503113 192.56225586 C-2.48573571 191.89351881 -2.48644029 191.22478176 -2.48716623 190.53577995 C-2.48847411 188.29596283 -2.4828023 186.05621618 -2.47729492 183.81640625 C-2.47705274 182.20969136 -2.47733013 180.60297632 -2.47808838 178.9962616 C-2.47919459 175.53520228 -2.47776169 172.07415622 -2.47472191 168.61309814 C-2.47108668 163.1318486 -2.48023506 157.65066799 -2.49250793 152.16943359 C-2.49554083 150.7806601 -2.49554083 150.7806601 -2.49863499 149.36383057 C-2.50280377 147.47041568 -2.50700652 145.57700086 -2.51124251 143.68358612 C-2.53935876 130.9249219 -2.55954891 118.16640671 -2.54223633 105.40771484 C-2.53065119 96.7994818 -2.54035192 88.19155838 -2.57429391 79.5833807 C-2.5913964 75.03219808 -2.59781758 70.48157393 -2.5781765 65.9303894 C-2.559839 61.64222008 -2.5697275 57.35500909 -2.60043335 53.06691933 C-2.60675707 51.50133293 -2.60304836 49.93566538 -2.58803749 48.37013817 C-2.48388782 36.62735072 -4.70368096 27.49283957 -12.4296875 18.3515625 C-20.35467886 11.27816013 -29.6250776 8.27526404 -40.1328125 8.765625 C-44.76043745 9.42511744 -48.37558368 10.84153781 -52.3671875 13.2265625 Z " fill="#020202" transform="translate(292.3671875,79.7734375)"/>
</svg>
